<svg width="40" height="21" viewBox="0 0 40 21" fill="none" xmlns="http://www.w3.org/2000/svg">
<rect x="38.5853" y="19.9569" width="38.1418" height="19.5135" transform="rotate(180 38.5853 19.9569)" fill="white" stroke="black" stroke-width="0.886997"/>
<ellipse cx="30.2413" cy="0.846359" rx="0.804068" ry="0.804031" transform="rotate(180 30.2413 0.846359)" fill="#0E0E0E"/>
<ellipse cx="30.2413" cy="3.51823" rx="0.804068" ry="0.804031" transform="rotate(180 30.2413 3.51823)" fill="#0E0E0E"/>
<ellipse cx="30.2413" cy="6.19206" rx="0.804068" ry="0.804031" transform="rotate(180 30.2413 6.19206)" fill="#0E0E0E"/>
<ellipse cx="30.2413" cy="8.86394" rx="0.804068" ry="0.804031" transform="rotate(180 30.2413 8.86394)" fill="#0E0E0E"/>
<ellipse cx="30.2413" cy="11.5358" rx="0.804068" ry="0.804031" transform="rotate(180 30.2413 11.5358)" fill="#0E0E0E"/>
<ellipse cx="30.2413" cy="14.2096" rx="0.804068" ry="0.804031" transform="rotate(180 30.2413 14.2096)" fill="#0E0E0E"/>
<ellipse cx="30.2413" cy="16.8815" rx="0.804068" ry="0.804031" transform="rotate(180 30.2413 16.8815)" fill="#0E0E0E"/>
<ellipse cx="30.2413" cy="19.5534" rx="0.804068" ry="0.804031" transform="rotate(180 30.2413 19.5534)" fill="#0E0E0E"/>
</svg>
